<?xml version="1.0" encoding="UTF-8" standalone="no"?>
<svg width="24px" height="24px" viewBox="0 0 24 24" version="1.1" xmlns="http://www.w3.org/2000/svg" xmlns:xlink="http://www.w3.org/1999/xlink">
    <!-- Generator: Sketch 39.1 (31720) - http://www.bohemiancoding.com/sketch -->
    <title>Rectangle</title>
    <desc>Created with Sketch.</desc>
    <defs></defs>
    <g id="Page-1" stroke="none" stroke-width="1" fill="none" fill-rule="evenodd">
        <rect id="Rectangle" x="0" y="0" width="24" height="24"></rect>
        <path d="M10.8696113,10.8696113 L4.16049289,10.8696113 C3.6160877,10.8696113 3.1629509,11.3163736 3.1629509,11.8674829 L3.1629509,12.0736426 C3.1629509,12.6259263 3.60956566,13.0715142 4.16049289,13.0715142 L10.8696113,13.0715142 L10.8696113,19.7806326 C10.8696113,20.3250378 11.3163736,20.7781746 11.8674829,20.7781746 L12.0736426,20.7781746 C12.6259263,20.7781746 13.0715142,20.3315598 13.0715142,19.7806326 L13.0715142,13.0715142 L19.7806326,13.0715142 C20.3250378,13.0715142 20.7781746,12.6247519 20.7781746,12.0736426 L20.7781746,11.8674829 C20.7781746,11.3151992 20.3315598,10.8696113 19.7806326,10.8696113 L13.0715142,10.8696113 L13.0715142,4.16049289 C13.0715142,3.6160877 12.6247519,3.1629509 12.0736426,3.1629509 L11.8674829,3.1629509 C11.3151992,3.1629509 10.8696113,3.60956566 10.8696113,4.16049289 L10.8696113,10.8696113 Z" id="Combined-Shape" fill="#555555" transform="translate(11.970563, 11.970563) rotate(45.000000) translate(-11.970563, -11.970563) "></path>
    </g>
</svg>