<?xml version="1.0" encoding="UTF-8" standalone="no"?>
<svg width="40px" height="40px" viewBox="0 0 40 40" version="1.1" xmlns="http://www.w3.org/2000/svg" xmlns:xlink="http://www.w3.org/1999/xlink">
    <!-- Generator: Sketch 39.1 (31720) - http://www.bohemiancoding.com/sketch -->
    <title>location</title>
    <desc>Created with Sketch.</desc>
    <defs></defs>
    <g id="Page-1" stroke="none" stroke-width="1" fill="none" fill-rule="evenodd">
        <rect id="Rectangle" x="8" y="8" width="24" height="24"></rect>
        <circle id="Oval-2" fill="#FFFFFF" cx="20" cy="20" r="3"></circle>
        <path d="M20,29 C24.9705627,29 29,24.9705627 29,20 C29,15.0294373 24.9705627,11 20,11 C15.0294373,11 11,15.0294373 11,20 C11,24.9705627 15.0294373,29 20,29 Z M20,27 C23.8659932,27 27,23.8659932 27,20 C27,16.1340068 23.8659932,13 20,13 C16.1340068,13 13,16.1340068 13,20 C13,23.8659932 16.1340068,27 20,27 Z" id="Combined-Shape" fill="#FFFFFF"></path>
    </g>
</svg>