<?xml version="1.0" encoding="utf-8"?>
<!-- Generator: Adobe Illustrator 16.0.0, SVG Export Plug-In . SVG Version: 6.00 Build 0)  -->
<!DOCTYPE svg PUBLIC "-//W3C//DTD SVG 1.1//EN" "http://www.w3.org/Graphics/SVG/1.1/DTD/svg11.dtd">
<svg version="1.1" id="Layer_1" xmlns="http://www.w3.org/2000/svg" xmlns:xlink="http://www.w3.org/1999/xlink" x="0px" y="0px"
	 width="126.028px" height="24px" viewBox="0 0 126.028 24" enable-background="new 0 0 126.028 24" xml:space="preserve">
<g>
	<rect x="73.014" y="0.018" width="3.298" height="23.959"/>
	<path d="M117.301,0.018h-2.569l-8.729,23.959h3.501l2.501-7.042h8.023l2.502,7.042h3.499L117.301,0.018z M113.123,13.703
		l2.891-8.42l2.896,8.42H113.123z"/>
	<polygon points="91.012,3.259 96.152,3.259 99.497,6.605 101.796,4.306 97.503,0.018 89.66,0.018 83.366,6.311 83.366,17.676 
		89.664,23.977 97.499,23.977 101.796,19.682 99.497,17.381 96.152,20.729 91.012,20.729 86.615,16.33 86.615,7.656 	"/>
	<path d="M64.67,8.432v-4.01l-4.404-4.405H49.021v23.959H60.51l5.009-5.01v-4.574l-3.404-3.406L64.67,8.432z M52.271,3.245h6.7
		l2.496,2.495v1.354l-2.562,2.564h-6.635V3.245z M62.326,15.733v1.893l-3.127,3.126h-6.933v-7.908h7.175L62.326,15.733z"/>
	<path d="M25.194,0.018v23.959h3.3v-9.74h5.814l4.243,9.74h3.649l-4.433-9.988l4.493-4.516V4.694l-4.671-4.676H25.194z
		 M39.012,8.148l-2.819,2.822l-7.698,0.001V3.279h7.759l2.759,2.761V8.148z"/>
	<polygon points="14.706,17.355 11.346,20.69 6.629,20.69 3.281,17.355 3.281,0.018 0,0.018 0,18.739 5.223,23.977 12.754,23.977 
		17.986,18.739 17.986,0.018 14.706,0.018 	"/>
</g>
</svg>
